<?xml version="1.0" encoding="utf-8"?>
<!-- Generated by Mocodo 4.3.2 -->
<svg width="737" height="365" viewBox="0 0 737 365" xmlns="http://www.w3.org/2000/svg">
<rect x="0" y="0" width="737" height="365" fill="#f7f7f7" stroke="none" stroke-width="0"/>

<!-- Association COMPOSER -->
<g>
	<line x1="317" y1="111" x2="184" y2="111" stroke="#8073ac" stroke-width="2"/>
	<line x1="62" y1="111" x2="184" y2="111" stroke="#8073ac" stroke-width="2"/>
	<g>
		<path d="M208 77 a14 14 90 0 1 14 14 V102 h-76 V91 a14 14 90 0 1 14 -14" fill="#b2abd2" stroke="#b2abd2" stroke-width="0"/>
		<path d="M222 102 v29 a14 14 90 0 1 -14 14 H160 a14 14 90 0 1 -14 -14 V102 H76" fill="#d8daeb" stroke="#d8daeb" stroke-width="0"/>
		<rect x="146" y="77" width="76" height="68" fill="none" rx="14" stroke="#8073ac" stroke-width="2"/>
		<line x1="146" y1="102" x2="222" y2="102" stroke="#8073ac" stroke-width="1"/>
		<text x="153" y="94.75" fill="#000000" font-family="Verdana" font-size="12">Composer</text>
		<text x="153" y="119.8" fill="#000000" font-family="Verdana" font-size="12">Quantité</text>
		<text x="153" y="136.8" fill="#000000" font-family="Verdana" font-size="12">Unité</text>
	</g>
	<text x="227" y="103" fill="#b35806" font-family="Verdana" font-size="12">0,N</text>
	<text x="119" y="128" fill="#b35806" font-family="Verdana" font-size="12">0,N</text>
</g>

<!-- Association ASSOCIER -->
<g>
	<line x1="317" y1="111" x2="445" y2="111" stroke="#8073ac" stroke-width="2"/>
	<line x1="566" y1="111" x2="445" y2="111" stroke="#8073ac" stroke-width="2"/>
	<g>
		<path d="M464 86 a14 14 90 0 1 14 14 V111 h-66 V100 a14 14 90 0 1 14 -14" fill="#b2abd2" stroke="#b2abd2" stroke-width="0"/>
		<path d="M478 111 v11 a14 14 90 0 1 -14 14 H426 a14 14 90 0 1 -14 -14 V111 H66" fill="#d8daeb" stroke="#d8daeb" stroke-width="0"/>
		<rect x="412" y="86" width="66" height="50" fill="none" rx="14" stroke="#8073ac" stroke-width="2"/>
		<line x1="412" y1="111" x2="478" y2="111" stroke="#8073ac" stroke-width="1"/>
		<text x="420" y="103.75" fill="#000000" font-family="Verdana" font-size="12">Associer</text>
	</g>
	<text x="385" y="128" fill="#b35806" font-family="Verdana" font-size="12">0,N</text>
	<text x="483" y="128" fill="#b35806" font-family="Verdana" font-size="12">0,N</text>
</g>

<!-- Association CREER -->
<g>
	<line x1="62" y1="297" x2="184" y2="297" stroke="#8073ac" stroke-width="2"/>
	<line x1="317" y1="111" x2="184" y2="297" stroke="#8073ac" stroke-width="2"/>
	<g>
		<path d="M194 272 a14 14 90 0 1 14 14 V297 h-48 V286 a14 14 90 0 1 14 -14" fill="#b2abd2" stroke="#b2abd2" stroke-width="0"/>
		<path d="M208 297 v11 a14 14 90 0 1 -14 14 H174 a14 14 90 0 1 -14 -14 V297 H48" fill="#d8daeb" stroke="#d8daeb" stroke-width="0"/>
		<rect x="160" y="272" width="48" height="50" fill="none" rx="14" stroke="#8073ac" stroke-width="2"/>
		<line x1="160" y1="297" x2="208" y2="297" stroke="#8073ac" stroke-width="1"/>
		<text x="167" y="289.75" fill="#000000" font-family="Verdana" font-size="12">Créer</text>
	</g>
	<text x="120" y="314" fill="#b35806" font-family="Verdana" font-size="12">0,N</text>
	<text x="228" y="196.54" fill="#b35806" font-family="Verdana" font-size="12">1,1</text>
</g>

<!-- Association INSPIRER -->
<g>
	<line x1="317" y1="111" x2="317" y2="297" stroke="#8073ac" stroke-width="2"/>
	<line x1="445" y1="297" x2="317" y2="297" stroke="#8073ac" stroke-width="2"/>
	<g>
		<path d="M334 272 a14 14 90 0 1 14 14 V297 h-62 V286 a14 14 90 0 1 14 -14" fill="#b2abd2" stroke="#b2abd2" stroke-width="0"/>
		<path d="M348 297 v11 a14 14 90 0 1 -14 14 H300 a14 14 90 0 1 -14 -14 V297 H62" fill="#d8daeb" stroke="#d8daeb" stroke-width="0"/>
		<rect x="286" y="272" width="62" height="50" fill="none" rx="14" stroke="#8073ac" stroke-width="2"/>
		<line x1="286" y1="297" x2="348" y2="297" stroke="#8073ac" stroke-width="1"/>
		<text x="293" y="289.75" fill="#000000" font-family="Verdana" font-size="12">Inspirer</text>
	</g>
	<text x="322" y="230" fill="#b35806" font-family="Verdana" font-size="12">1,1</text>
	<text x="374" y="314" fill="#b35806" font-family="Verdana" font-size="12">0,N</text>
</g>

<!-- Association CLASSER -->
<g>
	<line x1="445" y1="297" x2="566" y2="297" stroke="#8073ac" stroke-width="2"/>
	<line x1="678" y1="297" x2="566" y2="297" stroke="#8073ac" stroke-width="2"/>
	<g>
		<path d="M582 272 a14 14 90 0 1 14 14 V297 h-60 V286 a14 14 90 0 1 14 -14" fill="#b2abd2" stroke="#b2abd2" stroke-width="0"/>
		<path d="M596 297 v11 a14 14 90 0 1 -14 14 H550 a14 14 90 0 1 -14 -14 V297 H60" fill="#d8daeb" stroke="#d8daeb" stroke-width="0"/>
		<rect x="536" y="272" width="60" height="50" fill="none" rx="14" stroke="#8073ac" stroke-width="2"/>
		<line x1="536" y1="297" x2="596" y2="297" stroke="#8073ac" stroke-width="1"/>
		<text x="544" y="289.75" fill="#000000" font-family="Verdana" font-size="12">Classer</text>
	</g>
	<text x="494" y="314" fill="#b35806" font-family="Verdana" font-size="12">1,1</text>
	<text x="601" y="314" fill="#b35806" font-family="Verdana" font-size="12">0,N</text>
</g>

<!-- Entity INGREDIENT -->
<g>
	<g>
		<rect x="10" y="77" width="104" height="25" fill="#fdb863" stroke="none" stroke-width="0" opacity="1"/>
		<rect x="10" y="102" width="104" height="43" fill="#fee0b6" stroke="none" stroke-width="0" opacity="1"/>
		<rect x="10" y="77" width="104" height="68" fill="none" stroke="#e08214" stroke-width="2" opacity="1"/>
		<line x1="10" y1="102" x2="114" y2="102" stroke="#e08214" stroke-width="1"/>
	</g>
	<text x="30" y="94.75" fill="#000000" font-family="Verdana" font-size="12">Ingredient</text>
	<text x="15" y="119.8" fill="#000000" font-family="Verdana" font-size="12">Num ingredient</text>
	<line x1="15" y1="122" x2="109" y2="122" stroke="#000000" stroke-width="1"/>
	<text x="15" y="136.8" fill="#000000" font-family="Verdana" font-size="12">Nom</text>
</g>

<!-- Entity RECETTE -->
<g>
	<g>
		<rect x="254" y="9" width="126" height="25" fill="#fdb863" stroke="none" stroke-width="0" opacity="1"/>
		<rect x="254" y="34" width="126" height="179" fill="#fee0b6" stroke="none" stroke-width="0" opacity="1"/>
		<rect x="254" y="9" width="126" height="204" fill="none" stroke="#e08214" stroke-width="2" opacity="1"/>
		<line x1="254" y1="34" x2="380" y2="34" stroke="#e08214" stroke-width="1"/>
	</g>
	<text x="294" y="26.75" fill="#000000" font-family="Verdana" font-size="12">Recette</text>
	<text x="259" y="51.8" fill="#000000" font-family="Verdana" font-size="12">Num recette</text>
	<line x1="259" y1="54" x2="335" y2="54" stroke="#000000" stroke-width="1"/>
	<text x="259" y="68.8" fill="#000000" font-family="Verdana" font-size="12">Titre</text>
	<text x="259" y="85.8" fill="#000000" font-family="Verdana" font-size="12">Description</text>
	<text x="259" y="102.8" fill="#000000" font-family="Verdana" font-size="12">Étapes</text>
	<text x="259" y="119.8" fill="#000000" font-family="Verdana" font-size="12">Image</text>
	<text x="259" y="136.8" fill="#000000" font-family="Verdana" font-size="12">Temps préparation</text>
	<text x="259" y="153.8" fill="#000000" font-family="Verdana" font-size="12">Temps cuisson</text>
	<text x="259" y="170.8" fill="#000000" font-family="Verdana" font-size="12">Nombre personnes</text>
	<text x="259" y="187.8" fill="#000000" font-family="Verdana" font-size="12">Difficulté</text>
	<text x="259" y="204.8" fill="#000000" font-family="Verdana" font-size="12">Date ajout</text>
</g>

<!-- Entity THEMATIQUE -->
<g>
	<g>
		<rect x="510" y="69" width="112" height="25" fill="#fdb863" stroke="none" stroke-width="0" opacity="1"/>
		<rect x="510" y="94" width="112" height="59" fill="#fee0b6" stroke="none" stroke-width="0" opacity="1"/>
		<rect x="510" y="69" width="112" height="84" fill="none" stroke="#e08214" stroke-width="2" opacity="1"/>
		<line x1="510" y1="94" x2="622" y2="94" stroke="#e08214" stroke-width="1"/>
	</g>
	<text x="530" y="86.75" fill="#000000" font-family="Verdana" font-size="12">Thématique</text>
	<text x="515" y="111.8" fill="#000000" font-family="Verdana" font-size="12">Num thématique</text>
	<line x1="515" y1="114" x2="617" y2="114" stroke="#000000" stroke-width="1"/>
	<text x="515" y="128.8" fill="#000000" font-family="Verdana" font-size="12">Nom</text>
	<text x="515" y="145.8" fill="#000000" font-family="Verdana" font-size="12">Description</text>
</g>

<!-- Entity UTILISATEUR -->
<g>
	<g>
		<rect x="9" y="238" width="106" height="25" fill="#fdb863" stroke="none" stroke-width="0" opacity="1"/>
		<rect x="9" y="263" width="106" height="93" fill="#fee0b6" stroke="none" stroke-width="0" opacity="1"/>
		<rect x="9" y="238" width="106" height="118" fill="none" stroke="#e08214" stroke-width="2" opacity="1"/>
		<line x1="9" y1="263" x2="115" y2="263" stroke="#e08214" stroke-width="1"/>
	</g>
	<text x="31" y="255.75" fill="#000000" font-family="Verdana" font-size="12">Utilisateur</text>
	<text x="14" y="280.8" fill="#000000" font-family="Verdana" font-size="12">Num utilisateur</text>
	<line x1="14" y1="283" x2="108" y2="283" stroke="#000000" stroke-width="1"/>
	<text x="14" y="297.8" fill="#000000" font-family="Verdana" font-size="12">Pseudo</text>
	<text x="14" y="314.8" fill="#000000" font-family="Verdana" font-size="12">Email</text>
	<text x="14" y="331.8" fill="#000000" font-family="Verdana" font-size="12">Mot de passe</text>
	<text x="14" y="348.8" fill="#000000" font-family="Verdana" font-size="12">Date inscription</text>
</g>

<!-- Entity OEUVRE -->
<g>
	<g>
		<rect x="401" y="238" width="88" height="25" fill="#fdb863" stroke="none" stroke-width="0" opacity="1"/>
		<rect x="401" y="263" width="88" height="93" fill="#fee0b6" stroke="none" stroke-width="0" opacity="1"/>
		<rect x="401" y="238" width="88" height="118" fill="none" stroke="#e08214" stroke-width="2" opacity="1"/>
		<line x1="401" y1="263" x2="489" y2="263" stroke="#e08214" stroke-width="1"/>
	</g>
	<text x="423" y="255.75" fill="#000000" font-family="Verdana" font-size="12">Oeuvre</text>
	<text x="406" y="280.8" fill="#000000" font-family="Verdana" font-size="12">Num oeuvre</text>
	<line x1="406" y1="283" x2="481" y2="283" stroke="#000000" stroke-width="1"/>
	<text x="406" y="297.8" fill="#000000" font-family="Verdana" font-size="12">Titre</text>
	<text x="406" y="314.8" fill="#000000" font-family="Verdana" font-size="12">Année sortie</text>
	<text x="406" y="331.8" fill="#000000" font-family="Verdana" font-size="12">Synopsis</text>
	<text x="406" y="348.8" fill="#000000" font-family="Verdana" font-size="12">Image</text>
</g>

<!-- Entity CATEGORIE -->
<g>
	<g>
		<rect x="628" y="255" width="100" height="25" fill="#fdb863" stroke="none" stroke-width="0" opacity="1"/>
		<rect x="628" y="280" width="100" height="59" fill="#fee0b6" stroke="none" stroke-width="0" opacity="1"/>
		<rect x="628" y="255" width="100" height="84" fill="none" stroke="#e08214" stroke-width="2" opacity="1"/>
		<line x1="628" y1="280" x2="728" y2="280" stroke="#e08214" stroke-width="1"/>
	</g>
	<text x="649" y="272.75" fill="#000000" font-family="Verdana" font-size="12">Catégorie</text>
	<text x="633" y="297.8" fill="#000000" font-family="Verdana" font-size="12">Num catégorie</text>
	<line x1="633" y1="300" x2="722" y2="300" stroke="#000000" stroke-width="1"/>
	<text x="633" y="314.8" fill="#000000" font-family="Verdana" font-size="12">Nom</text>
	<text x="633" y="331.8" fill="#000000" font-family="Verdana" font-size="12">Description</text>
</g>
</svg>